<?xml version="1.0" encoding="UTF-8"?><svg xmlns="http://www.w3.org/2000/svg" xmlns:xlink="http://www.w3.org/1999/xlink" contentScriptType="text/ecmascript" width="810pt" zoomAndPan="magnify" contentStyleType="text/css" viewBox="0 0 810 809.999993" height="809.999993pt" preserveAspectRatio="xMidYMid meet" version="1.2"><defs><g/></defs><g xml:id="surface1" id="surface1"><path style=" stroke:none;fill-rule:nonzero;fill:rgb(100%,87.059021%,34.899902%);fill-opacity:1;" d="M 120.792969 237.5625 L 689.292969 237.5625 L 689.292969 572.808594 L 120.792969 572.808594 Z M 120.792969 237.5625 "/><path style=" stroke:none;fill-rule:nonzero;fill:rgb(90.979004%,78.42865%,28.239441%);fill-opacity:1;" d="M 156.4375 212.25 L 652.1875 212.25 L 652.1875 601.5 L 156.4375 601.5 Z M 156.4375 212.25 "/><path style=" stroke:none;fill-rule:nonzero;fill:rgb(100%,45.878601%,11.369324%);fill-opacity:1;" d="M 182.25 182.25 L 627.75 182.25 L 627.75 627.75 L 182.25 627.75 Z M 182.25 182.25 "/><g clip-rule="nonzero"><path style=" stroke:none;fill-rule:nonzero;fill:rgb(100%,100%,100%);fill-opacity:1;" d="M 475.34375 401.671875 C 456.792969 401.671875 441.753906 386.652344 441.753906 368.121094 C 441.753906 349.589844 456.792969 334.566406 475.34375 334.566406 C 493.894531 334.566406 508.933594 349.589844 508.933594 368.121094 C 508.933594 386.652344 493.894531 401.671875 475.34375 401.671875 Z M 430.058594 486.179688 C 411.503906 486.179688 396.46875 471.160156 396.46875 452.625 C 396.46875 434.09375 411.503906 419.074219 430.058594 419.074219 C 448.609375 419.074219 463.648438 434.09375 463.648438 452.625 C 463.648438 471.160156 448.609375 486.179688 430.058594 486.179688 Z M 392 406.957031 C 388.015625 406.957031 384.785156 403.730469 384.785156 399.753906 C 384.785156 395.773438 388.015625 392.546875 392 392.546875 C 395.984375 392.546875 399.214844 395.773438 399.214844 399.753906 C 399.214844 403.730469 395.984375 406.957031 392 406.957031 Z M 396.902344 362.460938 C 404.40625 362.460938 410.492188 368.539062 410.492188 376.039062 C 410.492188 383.535156 404.40625 389.613281 396.902344 389.613281 C 389.394531 389.613281 383.308594 383.535156 383.308594 376.039062 C 383.308594 368.539062 389.394531 362.460938 396.902344 362.460938 Z M 379.300781 353.886719 C 379.300781 349.90625 382.53125 346.679688 386.519531 346.679688 C 390.5 346.679688 393.730469 349.90625 393.730469 353.886719 C 393.730469 357.871094 390.5 361.097656 386.519531 361.097656 C 382.53125 361.097656 379.300781 357.871094 379.300781 353.886719 Z M 372.722656 385.132812 C 368.734375 385.132812 365.503906 381.90625 365.503906 377.925781 C 365.503906 373.941406 368.734375 370.714844 372.722656 370.714844 C 376.703125 370.714844 379.929688 373.941406 379.929688 377.925781 C 379.929688 381.90625 376.703125 385.132812 372.722656 385.132812 Z M 335.015625 465.238281 C 316.457031 465.238281 301.421875 450.214844 301.421875 431.683594 C 301.421875 413.152344 316.457031 398.132812 335.015625 398.132812 C 353.5625 398.132812 368.605469 413.152344 368.605469 431.683594 C 368.605469 450.214844 353.5625 465.238281 335.015625 465.238281 Z M 289.351562 334.566406 C 289.351562 316.035156 304.390625 301.015625 322.945312 301.015625 C 341.496094 301.015625 356.53125 316.035156 356.53125 334.566406 C 356.53125 353.097656 341.496094 368.121094 322.945312 368.121094 C 304.390625 368.121094 289.351562 353.097656 289.351562 334.566406 Z M 406.152344 359.21875 C 406.152344 355.238281 409.386719 352.011719 413.371094 352.011719 C 417.351562 352.011719 420.582031 355.238281 420.582031 359.21875 C 420.582031 363.195312 417.351562 366.425781 413.371094 366.425781 C 409.386719 366.425781 406.152344 363.195312 406.152344 359.21875 Z M 418.234375 380.585938 C 422.21875 380.585938 425.445312 383.8125 425.445312 387.789062 C 425.445312 391.773438 422.21875 395 418.234375 395 C 414.25 395 411.015625 391.773438 411.015625 387.789062 C 411.015625 383.8125 414.25 380.585938 418.234375 380.585938 Z M 413.339844 259.507812 C 431.894531 259.507812 446.929688 274.53125 446.929688 293.058594 C 446.929688 311.59375 431.894531 326.617188 413.339844 326.617188 C 394.792969 326.617188 379.753906 311.59375 379.753906 293.058594 C 379.753906 274.53125 394.792969 259.507812 413.339844 259.507812 Z M 395.476562 250.8125 C 325.800781 250.8125 269.328125 307.226562 269.328125 376.820312 C 269.328125 446.410156 325.800781 502.832031 395.476562 502.832031 C 465.148438 502.832031 521.625 446.410156 521.625 376.820312 C 521.625 307.226562 465.148438 250.8125 395.476562 250.8125 "/></g><g clip-rule="nonzero"><path style=" stroke:none;fill-rule:nonzero;fill:rgb(100%,100%,100%);fill-opacity:1;" d="M 418.121094 507.300781 C 418.121094 507.300781 502.214844 499.847656 529.089844 415.589844 C 541.777344 399.1875 574.371094 390.988281 574.371094 390.988281 C 574.371094 390.988281 539.039062 502.085938 418.121094 507.300781 "/></g><g style="fill:rgb(100%,100%,100%);fill-opacity:1;"><g transform="translate(314.574685, 563.584216)"><path style="stroke:none;" d="M 14.4375 -30.140625 C 18.894531 -30.140625 22.8125 -29.035156 26.1875 -26.828125 L 23.328125 -20.90625 C 21.765625 -21.8125 20.085938 -22.554688 18.296875 -23.140625 C 16.515625 -23.722656 15.015625 -24.015625 13.796875 -24.015625 C 11.609375 -24.015625 10.515625 -23.289062 10.515625 -21.84375 C 10.515625 -20.90625 11.050781 -20.148438 12.125 -19.578125 C 13.207031 -19.015625 14.519531 -18.523438 16.0625 -18.109375 C 17.613281 -17.703125 19.160156 -17.207031 20.703125 -16.625 C 22.253906 -16.039062 23.566406 -15.097656 24.640625 -13.796875 C 25.722656 -12.492188 26.265625 -10.847656 26.265625 -8.859375 C 26.265625 -5.992188 25.144531 -3.757812 22.90625 -2.15625 C 20.664062 -0.550781 17.8125 0.25 14.34375 0.25 C 11.875 0.25 9.429688 -0.171875 7.015625 -1.015625 C 4.609375 -1.867188 2.507812 -3.035156 0.71875 -4.515625 L 3.65625 -10.34375 C 5.164062 -9.039062 6.941406 -7.96875 8.984375 -7.125 C 11.023438 -6.289062 12.84375 -5.875 14.4375 -5.875 C 15.65625 -5.875 16.601562 -6.09375 17.28125 -6.53125 C 17.96875 -6.976562 18.3125 -7.625 18.3125 -8.46875 C 18.3125 -9.289062 17.921875 -9.976562 17.140625 -10.53125 C 16.359375 -11.09375 15.382812 -11.503906 14.21875 -11.765625 C 13.050781 -12.035156 11.785156 -12.398438 10.421875 -12.859375 C 9.066406 -13.316406 7.804688 -13.8125 6.640625 -14.34375 C 5.472656 -14.882812 4.5 -15.742188 3.71875 -16.921875 C 2.945312 -18.097656 2.5625 -19.507812 2.5625 -21.15625 C 2.5625 -23.882812 3.644531 -26.0625 5.8125 -27.6875 C 7.976562 -29.320312 10.851562 -30.140625 14.4375 -30.140625 Z M 14.4375 -30.140625 "/></g></g><g style="fill:rgb(100%,100%,100%);fill-opacity:1;"><g transform="translate(341.99245, 563.584216)"><path style="stroke:none;" d="M 16.3125 -6.34375 L 17.75 -1.234375 C 15.96875 -0.179688 13.925781 0.34375 11.625 0.34375 C 9.351562 0.34375 7.515625 -0.285156 6.109375 -1.546875 C 4.703125 -2.816406 4 -4.613281 4 -6.9375 L 4 -17.078125 L 0.8125 -17.078125 L 0.8125 -21.890625 L 4 -21.890625 L 4 -28.265625 L 11.328125 -28.265625 L 11.328125 -21.921875 L 17.328125 -21.921875 L 17.328125 -17.078125 L 11.328125 -17.078125 L 11.328125 -8.09375 C 11.328125 -7.207031 11.503906 -6.554688 11.859375 -6.140625 C 12.210938 -5.734375 12.742188 -5.546875 13.453125 -5.578125 C 14.140625 -5.578125 15.09375 -5.832031 16.3125 -6.34375 Z M 16.3125 -6.34375 "/></g></g><g style="fill:rgb(100%,100%,100%);fill-opacity:1;"><g transform="translate(360.512217, 563.584216)"><path style="stroke:none;" d="M 13.234375 -23.296875 C 16.390625 -23.296875 18.835938 -22.5625 20.578125 -21.09375 C 22.328125 -19.632812 23.21875 -17.597656 23.25 -14.984375 L 23.25 0 L 16.046875 0 L 16.046875 -2.640625 C 14.546875 -0.648438 12.207031 0.34375 9.03125 0.34375 C 6.613281 0.34375 4.695312 -0.320312 3.28125 -1.65625 C 1.863281 -2.988281 1.15625 -4.722656 1.15625 -6.859375 C 1.15625 -9.046875 1.910156 -10.738281 3.421875 -11.9375 C 4.941406 -13.144531 7.125 -13.765625 9.96875 -13.796875 L 16.015625 -13.796875 L 16.015625 -14.140625 C 16.015625 -15.273438 15.632812 -16.160156 14.875 -16.796875 C 14.125 -17.429688 13.007812 -17.75 11.53125 -17.75 C 9.46875 -17.75 7.1875 -17.113281 4.6875 -15.84375 L 2.59375 -20.6875 C 6.3125 -22.425781 9.859375 -23.296875 13.234375 -23.296875 Z M 11.28125 -4.640625 C 12.445312 -4.640625 13.46875 -4.929688 14.34375 -5.515625 C 15.226562 -6.097656 15.785156 -6.859375 16.015625 -7.796875 L 16.015625 -9.828125 L 11.375 -9.828125 C 9.15625 -9.828125 8.046875 -9.003906 8.046875 -7.359375 C 8.046875 -6.515625 8.328125 -5.847656 8.890625 -5.359375 C 9.460938 -4.878906 10.257812 -4.640625 11.28125 -4.640625 Z M 11.28125 -4.640625 "/></g></g><g style="fill:rgb(100%,100%,100%);fill-opacity:1;"><g transform="translate(386.056721, 563.584216)"><path style="stroke:none;" d="M 16.3125 -6.34375 L 17.75 -1.234375 C 15.96875 -0.179688 13.925781 0.34375 11.625 0.34375 C 9.351562 0.34375 7.515625 -0.285156 6.109375 -1.546875 C 4.703125 -2.816406 4 -4.613281 4 -6.9375 L 4 -17.078125 L 0.8125 -17.078125 L 0.8125 -21.890625 L 4 -21.890625 L 4 -28.265625 L 11.328125 -28.265625 L 11.328125 -21.921875 L 17.328125 -21.921875 L 17.328125 -17.078125 L 11.328125 -17.078125 L 11.328125 -8.09375 C 11.328125 -7.207031 11.503906 -6.554688 11.859375 -6.140625 C 12.210938 -5.734375 12.742188 -5.546875 13.453125 -5.578125 C 14.140625 -5.578125 15.09375 -5.832031 16.3125 -6.34375 Z M 16.3125 -6.34375 "/></g></g><g style="fill:rgb(100%,100%,100%);fill-opacity:1;"><g transform="translate(404.576488, 563.584216)"><path style="stroke:none;" d="M 3.84375 -32.328125 C 4.570312 -33.054688 5.503906 -33.421875 6.640625 -33.421875 C 7.773438 -33.421875 8.703125 -33.054688 9.421875 -32.328125 C 10.148438 -31.609375 10.515625 -30.679688 10.515625 -29.546875 C 10.515625 -28.410156 10.148438 -27.472656 9.421875 -26.734375 C 8.703125 -25.992188 7.773438 -25.625 6.640625 -25.625 C 5.503906 -25.625 4.570312 -25.992188 3.84375 -26.734375 C 3.125 -27.472656 2.765625 -28.410156 2.765625 -29.546875 C 2.765625 -30.679688 3.125 -31.609375 3.84375 -32.328125 Z M 10.265625 0 L 2.9375 0 L 2.9375 -22.953125 L 10.265625 -22.953125 Z M 10.265625 0 "/></g></g><g style="fill:rgb(100%,100%,100%);fill-opacity:1;"><g transform="translate(417.81705, 563.584216)"><path style="stroke:none;" d="M 13.578125 -23.203125 C 17.328125 -23.203125 20.347656 -22.128906 22.640625 -19.984375 C 24.941406 -17.847656 26.09375 -15.019531 26.09375 -11.5 C 26.09375 -7.976562 24.941406 -5.140625 22.640625 -2.984375 C 20.347656 -0.828125 17.328125 0.25 13.578125 0.25 C 9.804688 0.25 6.769531 -0.828125 4.46875 -2.984375 C 2.164062 -5.140625 1.015625 -7.976562 1.015625 -11.5 C 1.015625 -15.019531 2.164062 -17.847656 4.46875 -19.984375 C 6.769531 -22.128906 9.804688 -23.203125 13.578125 -23.203125 Z M 13.578125 -17.375 C 12.046875 -17.375 10.804688 -16.816406 9.859375 -15.703125 C 8.910156 -14.597656 8.4375 -13.164062 8.4375 -11.40625 C 8.4375 -9.625 8.910156 -8.1875 9.859375 -7.09375 C 10.804688 -6 12.046875 -5.453125 13.578125 -5.453125 C 15.085938 -5.453125 16.316406 -6 17.265625 -7.09375 C 18.210938 -8.1875 18.6875 -9.625 18.6875 -11.40625 C 18.6875 -13.164062 18.210938 -14.597656 17.265625 -15.703125 C 16.316406 -16.816406 15.085938 -17.375 13.578125 -17.375 Z M 13.578125 -17.375 "/></g></g><g style="fill:rgb(100%,100%,100%);fill-opacity:1;"><g transform="translate(444.936788, 563.584216)"><path style="stroke:none;" d="M 17.96875 -23.296875 C 20.488281 -23.296875 22.515625 -22.492188 24.046875 -20.890625 C 25.585938 -19.285156 26.359375 -17.148438 26.359375 -14.484375 L 26.359375 0 L 19.03125 0 L 19.03125 -12.4375 C 19.03125 -13.769531 18.664062 -14.828125 17.9375 -15.609375 C 17.21875 -16.390625 16.234375 -16.78125 14.984375 -16.78125 C 13.679688 -16.78125 12.609375 -16.351562 11.765625 -15.5 C 10.929688 -14.644531 10.441406 -13.523438 10.296875 -12.140625 L 10.296875 0 L 2.9375 0 L 2.9375 -22.953125 L 10.296875 -22.953125 L 10.296875 -19.203125 C 11.921875 -21.867188 14.476562 -23.234375 17.96875 -23.296875 Z M 17.96875 -23.296875 "/></g></g><g style="fill:rgb(100%,100%,100%);fill-opacity:1;"><g transform="translate(473.5892, 563.584216)"><path style="stroke:none;" d="M 11.15625 -23.296875 C 14.53125 -23.296875 17.679688 -22.425781 20.609375 -20.6875 L 18.09375 -15.921875 C 15.257812 -17.453125 12.847656 -18.21875 10.859375 -18.21875 C 9.347656 -18.21875 8.59375 -17.691406 8.59375 -16.640625 C 8.59375 -16.078125 9.003906 -15.601562 9.828125 -15.21875 C 10.660156 -14.832031 11.671875 -14.484375 12.859375 -14.171875 C 14.046875 -13.859375 15.226562 -13.46875 16.40625 -13 C 17.59375 -12.539062 18.597656 -11.796875 19.421875 -10.765625 C 20.242188 -9.742188 20.65625 -8.5 20.65625 -7.03125 C 20.65625 -4.726562 19.757812 -2.929688 17.96875 -1.640625 C 16.175781 -0.347656 13.847656 0.296875 10.984375 0.296875 C 6.921875 0.296875 3.488281 -0.78125 0.6875 -2.9375 L 3.015625 -7.625 C 5.710938 -5.71875 8.425781 -4.765625 11.15625 -4.765625 C 12.832031 -4.765625 13.671875 -5.289062 13.671875 -6.34375 C 13.671875 -6.9375 13.265625 -7.429688 12.453125 -7.828125 C 11.640625 -8.234375 10.648438 -8.59375 9.484375 -8.90625 C 8.328125 -9.21875 7.164062 -9.601562 6 -10.0625 C 4.84375 -10.53125 3.859375 -11.257812 3.046875 -12.25 C 2.234375 -13.25 1.828125 -14.503906 1.828125 -16.015625 C 1.828125 -18.304688 2.691406 -20.09375 4.421875 -21.375 C 6.160156 -22.65625 8.40625 -23.296875 11.15625 -23.296875 Z M 11.15625 -23.296875 "/></g></g></g></svg>