<?xml version="1.0" encoding="UTF-8"?><svg xmlns="http://www.w3.org/2000/svg" xmlns:xlink="http://www.w3.org/1999/xlink" contentScriptType="text/ecmascript" width="768pt" zoomAndPan="magnify" contentStyleType="text/css" viewBox="0 0 768 767.999994" height="767.999994pt" preserveAspectRatio="xMidYMid meet" version="1.2"><defs><clipPath xml:id="clip1" id="clip1"><path d="M 58 70 L 686 70 L 686 698 L 58 698 Z M 58 70 "/></clipPath><clipPath xml:id="clip2" id="clip2"><path d="M -70.621094 406.632812 L 349.535156 -58.765625 L 814.9375 361.386719 L 394.78125 826.789062 Z M -70.621094 406.632812 "/></clipPath><clipPath xml:id="clip3" id="clip3"><path d="M -70.621094 406.632812 L 349.535156 -58.765625 L 814.9375 361.386719 L 394.78125 826.789062 Z M -70.621094 406.632812 "/></clipPath><clipPath xml:id="clip4" id="clip4"><path d="M 582.234375 151.308594 C 586.042969 154.746094 589.765625 158.277344 593.398438 161.898438 C 597.035156 165.519531 600.578125 169.226562 604.03125 173.023438 C 607.484375 176.816406 610.84375 180.695312 614.105469 184.652344 C 617.367188 188.613281 620.53125 192.648438 623.597656 196.765625 C 626.660156 200.878906 629.621094 205.066406 632.480469 209.328125 C 635.339844 213.589844 638.09375 217.917969 640.738281 222.3125 C 643.386719 226.707031 645.921875 231.164062 648.347656 235.6875 C 650.777344 240.207031 653.09375 244.78125 655.292969 249.417969 C 657.496094 254.050781 659.585938 258.734375 661.558594 263.472656 C 663.53125 268.207031 665.386719 272.988281 667.125 277.816406 C 668.863281 282.644531 670.480469 287.511719 671.980469 292.417969 C 673.476562 297.324219 674.855469 302.265625 676.113281 307.238281 C 677.367188 312.214844 678.503906 317.214844 679.511719 322.246094 C 680.523438 327.277344 681.410156 332.328125 682.171875 337.402344 C 682.9375 342.476562 683.574219 347.566406 684.085938 352.671875 C 684.601562 357.773438 684.988281 362.890625 685.25 368.011719 C 685.511719 373.136719 685.648438 378.265625 685.65625 383.394531 C 685.667969 388.527344 685.550781 393.652344 685.308594 398.777344 C 685.066406 403.902344 684.699219 409.019531 684.207031 414.125 C 683.714844 419.234375 683.097656 424.324219 682.355469 429.402344 C 681.609375 434.480469 680.746094 439.535156 679.753906 444.566406 C 678.761719 449.601562 677.648438 454.609375 676.410156 459.589844 C 675.175781 464.566406 673.816406 469.511719 672.335938 474.425781 C 670.855469 479.339844 669.257812 484.210938 667.539062 489.046875 C 665.820312 493.878906 663.984375 498.667969 662.027344 503.414062 C 660.074219 508.15625 658.003906 512.851562 655.820312 517.492188 C 653.636719 522.136719 651.339844 526.722656 648.929688 531.25 C 646.519531 535.78125 644 540.246094 641.371094 544.652344 C 638.742188 549.058594 636.007812 553.398438 633.164062 557.671875 C 630.324219 561.941406 627.378906 566.140625 624.328125 570.269531 C 621.28125 574.394531 618.132812 578.445312 614.886719 582.417969 C 611.640625 586.390625 608.296875 590.28125 604.859375 594.089844 C 601.421875 597.898438 597.890625 601.617188 594.269531 605.253906 C 590.648438 608.886719 586.941406 612.433594 583.148438 615.886719 C 579.351562 619.339844 575.476562 622.695312 571.515625 625.957031 C 567.554688 629.222656 563.519531 632.386719 559.402344 635.449219 C 555.289062 638.515625 551.101562 641.476562 546.839844 644.335938 C 542.578125 647.191406 538.253906 649.945312 533.855469 652.59375 C 529.460938 655.238281 525.003906 657.773438 520.484375 660.203125 C 515.964844 662.628906 511.386719 664.945312 506.753906 667.148438 C 502.117188 669.351562 497.433594 671.4375 492.695312 673.410156 C 487.960938 675.382812 483.179688 677.238281 478.351562 678.976562 C 473.523438 680.714844 468.65625 682.332031 463.75 683.832031 C 458.84375 685.332031 453.902344 686.710938 448.929688 687.964844 C 443.953125 689.222656 438.953125 690.355469 433.921875 691.367188 C 428.890625 692.378906 423.839844 693.265625 418.765625 694.027344 C 413.691406 694.789062 408.601562 695.425781 403.5 695.941406 C 398.394531 696.453125 393.277344 696.839844 388.15625 697.101562 C 383.03125 697.363281 377.902344 697.5 372.773438 697.511719 C 367.640625 697.519531 362.515625 697.40625 357.390625 697.164062 C 352.265625 696.921875 347.148438 696.554688 342.042969 696.0625 C 336.933594 695.566406 331.84375 694.949219 326.765625 694.207031 C 321.691406 693.464844 316.632812 692.597656 311.601562 691.605469 C 306.566406 690.617188 301.558594 689.5 296.582031 688.265625 C 291.601562 687.027344 286.65625 685.667969 281.742188 684.191406 C 276.828125 682.710938 271.957031 681.109375 267.121094 679.390625 C 262.289062 677.671875 257.5 675.835938 252.753906 673.882812 C 248.011719 671.929688 243.316406 669.859375 238.675781 667.675781 C 234.035156 665.488281 229.449219 663.191406 224.917969 660.78125 C 220.386719 658.375 215.921875 655.855469 211.515625 653.226562 C 207.109375 650.59375 202.769531 647.859375 198.5 645.019531 C 194.226562 642.175781 190.027344 639.230469 185.902344 636.183594 C 181.773438 633.132812 177.722656 629.988281 173.75 626.738281 C 169.777344 623.492188 165.890625 620.148438 162.082031 616.710938 C 158.273438 613.273438 154.550781 609.746094 150.914062 606.125 C 147.28125 602.503906 143.738281 598.796875 140.285156 595 C 136.832031 591.207031 133.472656 587.328125 130.210938 583.367188 C 126.945312 579.410156 123.785156 575.371094 120.71875 571.257812 C 117.65625 567.140625 114.691406 562.953125 111.835938 558.695312 C 108.976562 554.433594 106.222656 550.105469 103.578125 545.710938 C 100.929688 541.3125 98.394531 536.855469 95.964844 532.335938 C 93.539062 527.816406 91.222656 523.238281 89.019531 518.605469 C 86.816406 513.972656 84.730469 509.285156 82.757812 504.550781 C 80.785156 499.8125 78.929688 495.03125 77.191406 490.207031 C 75.453125 485.378906 73.835938 480.511719 72.335938 475.605469 C 70.835938 470.695312 69.460938 465.757812 68.203125 460.78125 C 66.945312 455.808594 65.8125 450.804688 64.800781 445.773438 C 63.792969 440.746094 62.90625 435.691406 62.140625 430.621094 C 61.378906 425.546875 60.742188 420.457031 60.226562 415.351562 C 59.714844 410.246094 59.328125 405.132812 59.066406 400.007812 C 58.804688 394.882812 58.667969 389.757812 58.660156 384.625 C 58.648438 379.496094 58.765625 374.367188 59.003906 369.242188 C 59.246094 364.117188 59.613281 359.003906 60.109375 353.894531 C 60.601562 348.789062 61.21875 343.695312 61.960938 338.621094 C 62.703125 333.542969 63.570312 328.488281 64.5625 323.453125 C 65.554688 318.417969 66.667969 313.414062 67.902344 308.433594 C 69.140625 303.453125 70.5 298.507812 71.980469 293.597656 C 73.457031 288.683594 75.058594 283.808594 76.777344 278.976562 C 78.496094 274.140625 80.332031 269.351562 82.285156 264.609375 C 84.242188 259.863281 86.308594 255.171875 88.496094 250.527344 C 90.679688 245.886719 92.976562 241.300781 95.386719 236.769531 C 97.796875 232.242188 100.316406 227.773438 102.945312 223.367188 C 105.574219 218.960938 108.308594 214.625 111.152344 210.351562 C 113.992188 206.082031 116.9375 201.882812 119.984375 197.753906 C 123.035156 193.625 126.183594 189.578125 129.429688 185.605469 C 132.675781 181.632812 136.019531 177.742188 139.457031 173.933594 C 142.894531 170.125 146.425781 166.402344 150.046875 162.769531 C 153.664062 159.132812 157.375 155.589844 161.167969 152.136719 C 164.964844 148.683594 168.839844 145.324219 172.800781 142.0625 C 176.761719 138.800781 180.796875 135.636719 184.910156 132.574219 C 189.027344 129.507812 193.214844 126.546875 197.476562 123.6875 C 201.734375 120.828125 206.0625 118.078125 210.457031 115.429688 C 214.855469 112.785156 219.3125 110.246094 223.832031 107.820312 C 228.351562 105.390625 232.929688 103.078125 237.5625 100.875 C 242.195312 98.671875 246.882812 96.582031 251.617188 94.609375 C 256.355469 92.636719 261.136719 90.78125 265.964844 89.042969 C 270.789062 87.308594 275.65625 85.6875 280.566406 84.1875 C 285.472656 82.691406 290.414062 81.3125 295.386719 80.054688 C 300.359375 78.800781 305.363281 77.667969 310.394531 76.65625 C 315.421875 75.644531 320.476562 74.757812 325.550781 73.996094 C 330.621094 73.230469 335.710938 72.59375 340.816406 72.082031 C 345.921875 71.570312 351.035156 71.179688 356.160156 70.917969 C 361.285156 70.65625 366.410156 70.523438 371.542969 70.511719 C 376.671875 70.5 381.800781 70.617188 386.925781 70.859375 C 392.050781 71.101562 397.167969 71.46875 402.273438 71.960938 C 407.378906 72.453125 412.472656 73.070312 417.550781 73.8125 C 422.625 74.558594 427.679688 75.425781 432.714844 76.414062 C 437.75 77.40625 442.753906 78.519531 447.734375 79.757812 C 452.714844 80.992188 457.660156 82.351562 462.574219 83.832031 C 467.484375 85.3125 472.359375 86.910156 477.191406 88.628906 C 482.027344 90.347656 486.816406 92.1875 491.558594 94.140625 C 496.304688 96.09375 500.996094 98.164062 505.640625 100.347656 C 510.28125 102.53125 514.867188 104.828125 519.398438 107.238281 C 523.925781 109.648438 528.394531 112.167969 532.800781 114.796875 C 537.207031 117.425781 541.546875 120.160156 545.816406 123.003906 C 550.089844 125.847656 554.289062 128.792969 558.414062 131.839844 C 562.542969 134.886719 566.589844 138.035156 570.5625 141.28125 C 574.535156 144.527344 578.425781 147.871094 582.234375 151.308594 Z M 582.234375 151.308594 "/></clipPath><linearGradient x1="1744.469648" gradientTransform="matrix(3.627451,3.274782,-3.274782,3.627451,-5482.713354,-6513.586749)" xmlns:xlink="http://www.w3.org/1999/xlink" y1="244.834" x2="1925.682319" gradientUnits="userSpaceOnUse" y2="244.834" xlink:type="simple" xlink:actuate="onLoad" id="linear0" xlink:show="other" xml:id="linear0"><stop style="stop-color:rgb(35.299683%,21.598816%,72.499084%);stop-opacity:1;" offset="0"/><stop style="stop-color:rgb(35.299683%,21.598816%,72.499084%);stop-opacity:1;" offset="0.125"/><stop style="stop-color:rgb(35.299683%,21.598816%,72.499084%);stop-opacity:1;" offset="0.140625"/><stop style="stop-color:rgb(35.362244%,21.629333%,72.515869%);stop-opacity:1;" offset="0.148437"/><stop style="stop-color:rgb(35.630798%,21.757507%,72.587585%);stop-opacity:1;" offset="0.152344"/><stop style="stop-color:rgb(35.835266%,21.856689%,72.642517%);stop-opacity:1;" offset="0.15625"/><stop style="stop-color:rgb(36.039734%,21.954346%,72.697449%);stop-opacity:1;" offset="0.160156"/><stop style="stop-color:rgb(36.244202%,22.053528%,72.75238%);stop-opacity:1;" offset="0.164062"/><stop style="stop-color:rgb(36.447144%,22.151184%,72.807312%);stop-opacity:1;" offset="0.167969"/><stop style="stop-color:rgb(36.651611%,22.250366%,72.862244%);stop-opacity:1;" offset="0.171875"/><stop style="stop-color:rgb(36.856079%,22.348022%,72.917175%);stop-opacity:1;" offset="0.175781"/><stop style="stop-color:rgb(37.060547%,22.445679%,72.972107%);stop-opacity:1;" offset="0.179688"/><stop style="stop-color:rgb(37.263489%,22.543335%,73.025513%);stop-opacity:1;" offset="0.183594"/><stop style="stop-color:rgb(37.467957%,22.642517%,73.080444%);stop-opacity:1;" offset="0.1875"/><stop style="stop-color:rgb(37.672424%,22.740173%,73.135376%);stop-opacity:1;" offset="0.191406"/><stop style="stop-color:rgb(37.876892%,22.839355%,73.190308%);stop-opacity:1;" offset="0.195312"/><stop style="stop-color:rgb(38.08136%,22.937012%,73.245239%);stop-opacity:1;" offset="0.199219"/><stop style="stop-color:rgb(38.285828%,23.034668%,73.300171%);stop-opacity:1;" offset="0.203125"/><stop style="stop-color:rgb(38.48877%,23.132324%,73.353577%);stop-opacity:1;" offset="0.207031"/><stop style="stop-color:rgb(38.693237%,23.231506%,73.408508%);stop-opacity:1;" offset="0.210938"/><stop style="stop-color:rgb(38.897705%,23.329163%,73.46344%);stop-opacity:1;" offset="0.214844"/><stop style="stop-color:rgb(39.102173%,23.428345%,73.518372%);stop-opacity:1;" offset="0.21875"/><stop style="stop-color:rgb(39.306641%,23.526001%,73.573303%);stop-opacity:1;" offset="0.222656"/><stop style="stop-color:rgb(39.511108%,23.623657%,73.628235%);stop-opacity:1;" offset="0.226562"/><stop style="stop-color:rgb(39.71405%,23.721313%,73.683167%);stop-opacity:1;" offset="0.230469"/><stop style="stop-color:rgb(39.918518%,23.820496%,73.738098%);stop-opacity:1;" offset="0.234375"/><stop style="stop-color:rgb(40.122986%,23.918152%,73.791504%);stop-opacity:1;" offset="0.238281"/><stop style="stop-color:rgb(40.327454%,24.017334%,73.846436%);stop-opacity:1;" offset="0.242187"/><stop style="stop-color:rgb(40.530396%,24.11499%,73.901367%);stop-opacity:1;" offset="0.246094"/><stop style="stop-color:rgb(40.734863%,24.212646%,73.956299%);stop-opacity:1;" offset="0.25"/><stop style="stop-color:rgb(40.939331%,24.310303%,74.01123%);stop-opacity:1;" offset="0.253906"/><stop style="stop-color:rgb(41.143799%,24.409485%,74.066162%);stop-opacity:1;" offset="0.257812"/><stop style="stop-color:rgb(41.348267%,24.507141%,74.121094%);stop-opacity:1;" offset="0.261719"/><stop style="stop-color:rgb(41.552734%,24.606323%,74.176025%);stop-opacity:1;" offset="0.265625"/><stop style="stop-color:rgb(41.755676%,24.703979%,74.229431%);stop-opacity:1;" offset="0.269531"/><stop style="stop-color:rgb(41.960144%,24.801636%,74.284363%);stop-opacity:1;" offset="0.273437"/><stop style="stop-color:rgb(42.164612%,24.899292%,74.339294%);stop-opacity:1;" offset="0.277344"/><stop style="stop-color:rgb(42.36908%,24.998474%,74.394226%);stop-opacity:1;" offset="0.28125"/><stop style="stop-color:rgb(42.573547%,25.09613%,74.449158%);stop-opacity:1;" offset="0.285156"/><stop style="stop-color:rgb(42.778015%,25.195312%,74.504089%);stop-opacity:1;" offset="0.289062"/><stop style="stop-color:rgb(42.980957%,25.292969%,74.559021%);stop-opacity:1;" offset="0.292969"/><stop style="stop-color:rgb(43.185425%,25.392151%,74.613953%);stop-opacity:1;" offset="0.296875"/><stop style="stop-color:rgb(43.389893%,25.489807%,74.667358%);stop-opacity:1;" offset="0.300781"/><stop style="stop-color:rgb(43.59436%,25.587463%,74.72229%);stop-opacity:1;" offset="0.304687"/><stop style="stop-color:rgb(43.797302%,25.68512%,74.777222%);stop-opacity:1;" offset="0.308594"/><stop style="stop-color:rgb(44.00177%,25.784302%,74.832153%);stop-opacity:1;" offset="0.3125"/><stop style="stop-color:rgb(44.206238%,25.881958%,74.887085%);stop-opacity:1;" offset="0.316406"/><stop style="stop-color:rgb(44.410706%,25.98114%,74.942017%);stop-opacity:1;" offset="0.320312"/><stop style="stop-color:rgb(44.615173%,26.078796%,74.996948%);stop-opacity:1;" offset="0.324219"/><stop style="stop-color:rgb(44.819641%,26.176453%,75.05188%);stop-opacity:1;" offset="0.328125"/><stop style="stop-color:rgb(45.022583%,26.274109%,75.105286%);stop-opacity:1;" offset="0.332031"/><stop style="stop-color:rgb(45.227051%,26.373291%,75.160217%);stop-opacity:1;" offset="0.335938"/><stop style="stop-color:rgb(45.431519%,26.470947%,75.215149%);stop-opacity:1;" offset="0.339844"/><stop style="stop-color:rgb(45.635986%,26.570129%,75.270081%);stop-opacity:1;" offset="0.34375"/><stop style="stop-color:rgb(45.840454%,26.667786%,75.325012%);stop-opacity:1;" offset="0.347656"/><stop style="stop-color:rgb(46.044922%,26.765442%,75.379944%);stop-opacity:1;" offset="0.351562"/><stop style="stop-color:rgb(46.247864%,26.863098%,75.434875%);stop-opacity:1;" offset="0.355469"/><stop style="stop-color:rgb(46.452332%,26.96228%,75.489807%);stop-opacity:1;" offset="0.359375"/><stop style="stop-color:rgb(46.656799%,27.059937%,75.543213%);stop-opacity:1;" offset="0.363281"/><stop style="stop-color:rgb(46.861267%,27.159119%,75.598145%);stop-opacity:1;" offset="0.367188"/><stop style="stop-color:rgb(47.064209%,27.256775%,75.653076%);stop-opacity:1;" offset="0.371094"/><stop style="stop-color:rgb(47.268677%,27.354431%,75.708008%);stop-opacity:1;" offset="0.375"/><stop style="stop-color:rgb(47.473145%,27.452087%,75.762939%);stop-opacity:1;" offset="0.378906"/><stop style="stop-color:rgb(47.677612%,27.55127%,75.817871%);stop-opacity:1;" offset="0.382812"/><stop style="stop-color:rgb(47.88208%,27.648926%,75.872803%);stop-opacity:1;" offset="0.386719"/><stop style="stop-color:rgb(48.086548%,27.748108%,75.927734%);stop-opacity:1;" offset="0.390625"/><stop style="stop-color:rgb(48.28949%,27.845764%,75.98114%);stop-opacity:1;" offset="0.394531"/><stop style="stop-color:rgb(48.493958%,27.94342%,76.036072%);stop-opacity:1;" offset="0.398438"/><stop style="stop-color:rgb(48.698425%,28.041077%,76.091003%);stop-opacity:1;" offset="0.402344"/><stop style="stop-color:rgb(48.902893%,28.140259%,76.145935%);stop-opacity:1;" offset="0.40625"/><stop style="stop-color:rgb(49.107361%,28.237915%,76.200867%);stop-opacity:1;" offset="0.410156"/><stop style="stop-color:rgb(49.311829%,28.337097%,76.255798%);stop-opacity:1;" offset="0.414062"/><stop style="stop-color:rgb(49.514771%,28.434753%,76.31073%);stop-opacity:1;" offset="0.417969"/><stop style="stop-color:rgb(49.719238%,28.533936%,76.365662%);stop-opacity:1;" offset="0.421875"/><stop style="stop-color:rgb(49.923706%,28.631592%,76.419067%);stop-opacity:1;" offset="0.425781"/><stop style="stop-color:rgb(50.128174%,28.729248%,76.473999%);stop-opacity:1;" offset="0.429688"/><stop style="stop-color:rgb(50.331116%,28.826904%,76.528931%);stop-opacity:1;" offset="0.433594"/><stop style="stop-color:rgb(50.535583%,28.926086%,76.583862%);stop-opacity:1;" offset="0.4375"/><stop style="stop-color:rgb(50.740051%,29.023743%,76.638794%);stop-opacity:1;" offset="0.441406"/><stop style="stop-color:rgb(50.944519%,29.122925%,76.693726%);stop-opacity:1;" offset="0.445312"/><stop style="stop-color:rgb(51.148987%,29.220581%,76.748657%);stop-opacity:1;" offset="0.449219"/><stop style="stop-color:rgb(51.353455%,29.318237%,76.803589%);stop-opacity:1;" offset="0.453125"/><stop style="stop-color:rgb(51.556396%,29.415894%,76.856995%);stop-opacity:1;" offset="0.457031"/><stop style="stop-color:rgb(51.760864%,29.515076%,76.911926%);stop-opacity:1;" offset="0.460938"/><stop style="stop-color:rgb(51.965332%,29.612732%,76.966858%);stop-opacity:1;" offset="0.464844"/><stop style="stop-color:rgb(52.1698%,29.711914%,77.02179%);stop-opacity:1;" offset="0.46875"/><stop style="stop-color:rgb(52.374268%,29.80957%,77.076721%);stop-opacity:1;" offset="0.472656"/><stop style="stop-color:rgb(52.578735%,29.907227%,77.131653%);stop-opacity:1;" offset="0.476562"/><stop style="stop-color:rgb(52.781677%,30.004883%,77.186584%);stop-opacity:1;" offset="0.480469"/><stop style="stop-color:rgb(52.986145%,30.104065%,77.241516%);stop-opacity:1;" offset="0.484375"/><stop style="stop-color:rgb(53.190613%,30.201721%,77.294922%);stop-opacity:1;" offset="0.488281"/><stop style="stop-color:rgb(53.395081%,30.300903%,77.349854%);stop-opacity:1;" offset="0.492188"/><stop style="stop-color:rgb(53.598022%,30.39856%,77.404785%);stop-opacity:1;" offset="0.496094"/><stop style="stop-color:rgb(53.80249%,30.496216%,77.459717%);stop-opacity:1;" offset="0.5"/><stop style="stop-color:rgb(54.006958%,30.593872%,77.514648%);stop-opacity:1;" offset="0.503906"/><stop style="stop-color:rgb(54.211426%,30.693054%,77.56958%);stop-opacity:1;" offset="0.507812"/><stop style="stop-color:rgb(54.415894%,30.79071%,77.624512%);stop-opacity:1;" offset="0.511719"/><stop style="stop-color:rgb(54.620361%,30.889893%,77.679443%);stop-opacity:1;" offset="0.515625"/><stop style="stop-color:rgb(54.823303%,30.987549%,77.732849%);stop-opacity:1;" offset="0.519531"/><stop style="stop-color:rgb(55.027771%,31.085205%,77.787781%);stop-opacity:1;" offset="0.523437"/><stop style="stop-color:rgb(55.232239%,31.182861%,77.842712%);stop-opacity:1;" offset="0.527344"/><stop style="stop-color:rgb(55.436707%,31.282043%,77.897644%);stop-opacity:1;" offset="0.53125"/><stop style="stop-color:rgb(55.641174%,31.3797%,77.952576%);stop-opacity:1;" offset="0.535156"/><stop style="stop-color:rgb(55.845642%,31.478882%,78.007507%);stop-opacity:1;" offset="0.539062"/><stop style="stop-color:rgb(56.048584%,31.576538%,78.062439%);stop-opacity:1;" offset="0.542969"/><stop style="stop-color:rgb(56.253052%,31.67572%,78.117371%);stop-opacity:1;" offset="0.546875"/><stop style="stop-color:rgb(56.45752%,31.773376%,78.170776%);stop-opacity:1;" offset="0.550781"/><stop style="stop-color:rgb(56.661987%,31.871033%,78.225708%);stop-opacity:1;" offset="0.554687"/><stop style="stop-color:rgb(56.864929%,31.968689%,78.28064%);stop-opacity:1;" offset="0.558594"/><stop style="stop-color:rgb(57.069397%,32.067871%,78.335571%);stop-opacity:1;" offset="0.5625"/><stop style="stop-color:rgb(57.273865%,32.165527%,78.390503%);stop-opacity:1;" offset="0.566406"/><stop style="stop-color:rgb(57.478333%,32.264709%,78.445435%);stop-opacity:1;" offset="0.570312"/><stop style="stop-color:rgb(57.6828%,32.362366%,78.500366%);stop-opacity:1;" offset="0.574219"/><stop style="stop-color:rgb(57.887268%,32.460022%,78.555298%);stop-opacity:1;" offset="0.578125"/><stop style="stop-color:rgb(58.09021%,32.557678%,78.608704%);stop-opacity:1;" offset="0.582031"/><stop style="stop-color:rgb(58.294678%,32.65686%,78.663635%);stop-opacity:1;" offset="0.585937"/><stop style="stop-color:rgb(58.499146%,32.754517%,78.718567%);stop-opacity:1;" offset="0.589844"/><stop style="stop-color:rgb(58.703613%,32.853699%,78.773499%);stop-opacity:1;" offset="0.59375"/><stop style="stop-color:rgb(58.879089%,32.9422%,78.829956%);stop-opacity:1;" offset="0.609375"/><stop style="stop-color:rgb(59.20105%,33.103943%,78.935242%);stop-opacity:1;" offset="0.625"/><stop style="stop-color:rgb(59.490967%,33.251953%,79.034424%);stop-opacity:1;" offset="0.640625"/><stop style="stop-color:rgb(59.78241%,33.399963%,79.133606%);stop-opacity:1;" offset="0.65625"/><stop style="stop-color:rgb(60.072327%,33.5495%,79.232788%);stop-opacity:1;" offset="0.671875"/><stop style="stop-color:rgb(60.362244%,33.69751%,79.330444%);stop-opacity:1;" offset="0.6875"/><stop style="stop-color:rgb(60.653687%,33.84552%,79.429626%);stop-opacity:1;" offset="0.703125"/><stop style="stop-color:rgb(60.943604%,33.99353%,79.528809%);stop-opacity:1;" offset="0.71875"/><stop style="stop-color:rgb(61.235046%,34.143066%,79.627991%);stop-opacity:1;" offset="0.734375"/><stop style="stop-color:rgb(61.524963%,34.291077%,79.727173%);stop-opacity:1;" offset="0.75"/><stop style="stop-color:rgb(61.81488%,34.439087%,79.824829%);stop-opacity:1;" offset="0.765625"/><stop style="stop-color:rgb(62.106323%,34.587097%,79.924011%);stop-opacity:1;" offset="0.78125"/><stop style="stop-color:rgb(62.39624%,34.735107%,80.023193%);stop-opacity:1;" offset="0.796875"/><stop style="stop-color:rgb(62.687683%,34.884644%,80.122375%);stop-opacity:1;" offset="0.8125"/><stop style="stop-color:rgb(62.9776%,35.032654%,80.221558%);stop-opacity:1;" offset="0.828125"/><stop style="stop-color:rgb(63.269043%,35.180664%,80.32074%);stop-opacity:1;" offset="0.84375"/><stop style="stop-color:rgb(63.456726%,35.276794%,80.383301%);stop-opacity:1;" offset="0.875"/><stop style="stop-color:rgb(63.499451%,35.299683%,80.39856%);stop-opacity:1;" offset="1"/></linearGradient><clipPath xml:id="clip5" id="clip5"><path d="M 550.28125 381.0625 L 748 381.0625 L 748 609 L 550.28125 609 Z M 550.28125 381.0625 "/></clipPath><clipPath xml:id="clip6" id="clip6"><path d="M 185.957031 195.84375 L 560.957031 195.84375 L 560.957031 570.84375 L 185.957031 570.84375 Z M 185.957031 195.84375 "/></clipPath><clipPath xml:id="clip7" id="clip7"><path d="M 183 194.621094 L 565.550781 194.621094 L 565.550781 577 L 183 577 Z M 183 194.621094 "/></clipPath><clipPath xml:id="clip8" id="clip8"><path d="M 274.890625 339 L 481.558594 339 L 481.558594 502.972656 L 274.890625 502.972656 Z M 274.890625 339 "/></clipPath></defs><g xml:id="surface1" id="surface1"><g clip-rule="nonzero" clip-path="url(#clip1)"><g clip-rule="nonzero" clip-path="url(#clip2)"><g clip-rule="nonzero" clip-path="url(#clip3)"><g clip-rule="nonzero" clip-path="url(#clip4)"><path style=" stroke:none;fill-rule:nonzero;fill:url(#linear0);" d="M 340.203125 -241.375 L -253.226562 415.964844 L 404.113281 1009.398438 L 997.542969 352.058594 Z M 340.203125 -241.375 "/></g></g></g></g><g clip-rule="nonzero" clip-path="url(#clip5)"><path style=" stroke:none;fill-rule:nonzero;fill:rgb(36.079407%,21.958923%,74.899292%);fill-opacity:1;" d="M 747.761719 512.695312 C 746.550781 486.042969 724.921875 451.515625 692.746094 433.351562 C 673.785156 422.636719 668.113281 415.925781 666.65625 412.226562 L 666.65625 381.222656 L 649.675781 381.222656 L 649.675781 533.046875 C 639.140625 524.964844 624.5625 519.949219 608.460938 519.949219 C 576.320312 519.949219 550.257812 539.882812 550.257812 564.472656 C 550.257812 589.054688 576.320312 608.980469 608.460938 608.980469 C 640.601562 608.980469 666.65625 589.054688 666.65625 564.472656 L 666.65625 478.550781 C 671.601562 483.058594 678.882812 488.019531 689.089844 491.191406 C 711.507812 498.15625 739.28125 527.828125 737.464844 536.3125 C 735.644531 544.78125 748.984375 539.324219 747.761719 512.695312 "/></g><g clip-rule="nonzero" clip-path="url(#clip6)"><path style=" stroke:none;fill-rule:nonzero;fill:rgb(100%,87.059021%,34.899902%);fill-opacity:1;" d="M 373.457031 195.84375 C 270.070312 195.84375 185.957031 279.957031 185.957031 383.34375 C 185.957031 486.730469 270.070312 570.84375 373.457031 570.84375 C 476.847656 570.84375 560.957031 486.730469 560.957031 383.34375 C 560.957031 279.957031 476.847656 195.84375 373.457031 195.84375 Z M 373.457031 195.84375 "/></g><g clip-rule="nonzero" clip-path="url(#clip7)"><path style="fill:none;stroke-width:1;stroke-linecap:square;stroke-linejoin:round;stroke:rgb(0%,0%,0%);stroke-opacity:1;stroke-miterlimit:4;" d="M 22.986099 11.991099 C 22.986099 12.170725 22.981828 12.350588 22.973286 12.530214 C 22.964506 12.70984 22.951455 12.888991 22.934133 13.068143 C 22.916574 13.247057 22.894744 13.425496 22.868405 13.603461 C 22.842304 13.781189 22.811694 13.958442 22.776812 14.134746 C 22.741931 14.311287 22.702542 14.486642 22.659118 14.661285 C 22.615458 14.835691 22.567763 15.00891 22.51556 15.18118 C 22.463594 15.353213 22.407357 15.52406 22.346849 15.693245 C 22.286578 15.862668 22.222036 16.030429 22.153223 16.196767 C 22.084647 16.362868 22.0118 16.527307 21.935157 16.689849 C 21.858276 16.852627 21.777598 17.013271 21.693124 17.171778 C 21.608413 17.330523 21.519905 17.487132 21.427601 17.641368 C 21.335296 17.795605 21.239195 17.947705 21.139297 18.097196 C 21.039637 18.246924 20.93618 18.393804 20.829164 18.538312 C 20.722147 18.682819 20.611572 18.824717 20.497674 18.963767 C 20.383777 19.103054 20.26632 19.239257 20.145778 19.372374 C 20.024999 19.50573 19.901136 19.636237 19.774187 19.763423 C 19.647002 19.890608 19.516968 20.014709 19.383851 20.135488 C 19.250733 20.256504 19.114768 20.373961 18.975718 20.488096 C 18.836905 20.602231 18.695245 20.713044 18.550737 20.820298 C 18.406467 20.927551 18.259586 21.031008 18.110096 21.131143 C 17.960605 21.231041 17.808742 21.327379 17.654743 21.419921 C 17.500507 21.512463 17.344135 21.601208 17.185627 21.686157 C 17.02712 21.771105 16.866477 21.85202 16.703935 21.928901 C 16.541394 22.006019 16.377192 22.078866 16.211091 22.147916 C 16.04499 22.216729 15.877229 22.281509 15.708043 22.342254 C 15.538858 22.402999 15.368011 22.459474 15.195979 22.511914 C 15.023946 22.564117 14.850726 22.612286 14.676321 22.655947 C 14.501915 22.699845 14.32656 22.739235 14.150256 22.77459 C 13.973952 22.809709 13.796699 22.840556 13.618971 22.867132 C 13.441007 22.893471 13.262567 22.915776 13.083653 22.933335 C 12.904739 22.951132 12.72535 22.96442 12.545724 22.973437 C 12.366098 22.982453 12.186472 22.986962 12.006609 22.986962 C 11.826745 22.987199 11.647119 22.982691 11.467493 22.974148 C 11.287867 22.965369 11.108479 22.952318 10.929565 22.934759 C 10.75065 22.9172 10.572211 22.895369 10.394246 22.86903 C 10.216518 22.842692 10.039265 22.812082 9.862961 22.777201 C 9.68642 22.742082 9.511065 22.70293 9.336659 22.659269 C 9.162016 22.615608 8.988797 22.567914 8.816764 22.515711 C 8.644494 22.463508 8.473885 22.407271 8.304462 22.346763 C 8.135277 22.286254 7.967515 22.221712 7.801177 22.152899 C 7.635077 22.084324 7.470637 22.011477 7.308096 21.934596 C 7.145554 21.857952 6.984911 21.777037 6.826167 21.692326 C 6.667659 21.607852 6.51105 21.519107 6.356814 21.426802 C 6.202577 21.334498 6.050477 21.238397 5.900986 21.138499 C 5.751495 21.038601 5.604378 20.935144 5.45987 20.828128 C 5.315363 20.721112 5.173702 20.610536 5.034652 20.496639 C 4.895602 20.382504 4.7594 20.265284 4.626045 20.144505 C 4.49269 20.023726 4.362419 19.899863 4.235234 19.772914 C 4.108048 19.645729 3.983947 19.515458 3.863168 19.38234 C 3.742389 19.249223 3.624932 19.11302 3.510798 18.974207 C 3.396663 18.835157 3.28585 18.693497 3.178834 18.549227 C 3.07158 18.404719 2.967886 18.257839 2.867988 18.108348 C 2.76809 17.958858 2.671752 17.806994 2.57921 17.652758 C 2.486668 17.498522 2.39816 17.34215 2.313212 17.183642 C 2.2285 17.025135 2.147586 16.864492 2.070705 16.70195 C 1.993587 16.539409 1.92074 16.375207 1.851927 16.209106 C 1.782876 16.043005 1.718097 15.875244 1.657589 15.705821 C 1.596843 15.536636 1.540369 15.366027 1.488166 15.193757 C 1.435963 15.021724 1.388031 14.848504 1.344133 14.674099 C 1.300472 14.499693 1.261083 14.324338 1.225727 14.148034 C 1.190609 13.971493 1.159999 13.794477 1.133423 13.616512 C 1.107084 13.438784 1.085016 13.260345 1.06722 13.081431 C 1.04966 12.902279 1.036372 12.723128 1.027355 12.543502 C 1.018576 12.363876 1.014067 12.18425 1.014067 12.004387 C 1.014067 11.824523 1.018339 11.644897 1.027118 11.465271 C 1.035898 11.285645 1.048949 11.106257 1.066508 10.927343 C 1.084067 10.748428 1.106135 10.569989 1.132473 10.392024 C 1.158812 10.214059 1.189422 10.037043 1.224541 9.860502 C 1.259659 9.684198 1.298811 9.508843 1.342472 9.334437 C 1.386133 9.159794 1.434065 8.986575 1.486268 8.814542 C 1.538471 8.642509 1.594708 8.471663 1.655216 8.302478 C 1.715961 8.133055 1.780503 7.965293 1.849316 7.799193 C 1.91813 7.633092 1.990977 7.468652 2.067857 7.306111 C 2.144501 7.14357 2.225416 6.982927 2.310127 6.824182 C 2.394838 6.665674 2.483346 6.509302 2.575888 6.354829 C 2.668193 6.200593 2.764531 6.048729 2.864429 5.899238 C 2.964089 5.749748 3.067783 5.60263 3.1748 5.458123 C 3.281816 5.313852 3.392392 5.171955 3.506526 5.032905 C 3.620661 4.894092 3.737881 4.75789 3.85866 4.624535 C 3.979439 4.491417 4.103302 4.361146 4.230488 4.233961 C 4.357674 4.106775 4.487944 3.982674 4.621062 3.861895 C 4.754417 3.741116 4.890382 3.62366 5.029432 3.509525 C 5.168482 3.395627 5.310142 3.284814 5.45465 3.177798 C 5.59892 3.070544 5.746038 2.967087 5.895528 2.86719 C 6.045019 2.767292 6.196882 2.670954 6.351119 2.578649 C 6.505355 2.486107 6.661727 2.397599 6.820234 2.312651 C 6.978979 2.227939 7.139385 2.147025 7.301926 2.070144 C 7.464705 1.993263 7.628907 1.920416 7.795008 1.851603 C 7.961109 1.78279 8.12887 1.71801 8.298293 1.657502 C 8.467478 1.596757 8.638325 1.54052 8.810358 1.488317 C 8.98239 1.436114 9.15561 1.388182 9.330015 1.344284 C 9.504658 1.300623 9.680013 1.261234 9.856317 1.226115 C 10.032621 1.190997 10.209874 1.160387 10.387602 1.134048 C 10.565567 1.107472 10.744006 1.085642 10.922921 1.067845 C 11.101835 1.050286 11.281223 1.036998 11.460849 1.028218 C 11.640475 1.019439 11.820101 1.01493 11.999965 1.01493 C 12.179591 1.015167 12.359217 1.019676 12.538605 1.028455 C 12.717994 1.037472 12.897146 1.05076 13.07606 1.068557 C 13.254736 1.086116 13.432939 1.108184 13.610666 1.13476 C 13.788394 1.161099 13.96541 1.191946 14.141477 1.227064 C 14.317781 1.262183 14.492898 1.301572 14.667304 1.345233 C 14.841472 1.388894 15.014692 1.436826 15.186487 1.489029 C 15.35852 1.541232 15.528892 1.597706 15.698077 1.658214 C 15.867262 1.718722 16.034787 1.783502 16.20065 1.852077 C 16.366751 1.920891 16.530953 1.993738 16.693257 2.070618 C 16.855799 2.147262 17.016204 2.228177 17.174712 2.312888 C 17.332982 2.397362 17.489354 2.486107 17.643353 2.578412 C 17.797589 2.670716 17.949216 2.766817 18.098706 2.866478 C 18.248197 2.966375 18.395077 3.069595 18.539347 3.176611 C 18.683618 3.283628 18.825278 3.394203 18.964091 3.508101 C 19.103141 3.621999 19.239106 3.739218 19.372224 3.85976 C 19.505579 3.980539 19.635612 4.104165 19.762797 4.231351 C 19.889746 4.358299 20.013609 4.488332 20.134388 4.621213 C 20.255167 4.75433 20.372624 4.890296 20.486522 5.029108 C 20.600657 5.167921 20.711232 5.309344 20.818248 5.453614 C 20.925502 5.597884 21.028959 5.744765 21.128857 5.894018 C 21.228754 6.043271 21.325093 6.194898 21.417635 6.348897 C 21.509939 6.502896 21.598684 6.659268 21.683396 6.817538 C 21.768344 6.975808 21.849259 7.136214 21.92614 7.298518 C 22.003258 7.461059 22.076105 7.625024 22.144918 7.790888 C 22.213968 7.956988 22.278748 8.124513 22.339493 8.293461 C 22.400239 8.462646 22.456713 8.633018 22.508916 8.805051 C 22.561356 8.976846 22.609525 9.149828 22.653423 9.323997 C 22.697084 9.498402 22.736711 9.67352 22.772067 9.849587 C 22.807422 10.025891 22.83827 10.202669 22.864846 10.380397 C 22.891422 10.558125 22.913727 10.736327 22.931523 10.915004 C 22.94932 11.093918 22.962845 11.272832 22.971862 11.452458 C 22.981116 11.631847 22.985625 11.811235 22.986099 11.991099 Z M 22.986099 11.991099 " transform="matrix(16.462157,0,0,16.462157,178.689076,186.389718)"/></g><g clip-rule="nonzero" clip-path="url(#clip8)"><path style=" stroke:none;fill-rule:nonzero;fill:rgb(6.269836%,5.879211%,5.099487%);fill-opacity:1;" d="M 478.203125 341.933594 L 475.714844 340.179688 C 472.46875 338.167969 467.976562 339.164062 465.972656 342.675781 L 449.988281 368.984375 L 445.242188 366.214844 C 441.996094 364.226562 437.503906 365.21875 435.5 368.476562 L 434.003906 371.226562 C 432 374.484375 433.011719 378.988281 436.257812 381 L 440.75 383.75 L 426.515625 406.800781 C 417.511719 400.796875 410.785156 400.796875 406.546875 400.796875 L 338.113281 400.796875 C 328.878906 400.796875 305.640625 400.796875 276.179688 468.667969 C 272.425781 477.421875 277.167969 487.679688 286.425781 490.453125 C 313.632812 498.46875 342.859375 502.972656 373.5625 502.972656 C 403.046875 502.972656 431.515625 498.976562 457.980469 491.445312 C 467.21875 488.695312 472.214844 478.4375 468.207031 469.660156 C 457.472656 444.871094 447.476562 429.074219 439 419.070312 L 454.984375 393.265625 L 459.222656 396.015625 C 462.472656 398.023438 466.964844 397.03125 468.96875 393.773438 L 470.464844 391.023438 C 472.46875 387.765625 471.457031 383.261719 468.207031 381.253906 L 463.714844 378.503906 L 479.953125 352.191406 C 482.695312 348.449219 481.703125 343.921875 478.203125 341.933594 "/></g><path style=" stroke:none;fill-rule:nonzero;fill:rgb(6.269836%,5.879211%,5.099487%);fill-opacity:1;" d="M 364.582031 318.878906 L 340.117188 310.378906 C 338.601562 309.871094 337.125 310.609375 336.617188 312.132812 C 336.109375 313.632812 336.871094 315.136719 338.367188 315.621094 L 348.34375 319.132812 C 344.609375 319.640625 341.363281 322.644531 341.363281 326.640625 C 341.363281 330.914062 344.863281 334.402344 349.101562 334.402344 C 353.339844 334.402344 356.839844 330.914062 356.839844 326.640625 C 356.839844 324.652344 356.082031 322.644531 354.585938 321.398438 L 362.828125 324.144531 C 363.082031 324.144531 363.335938 324.398438 363.84375 324.398438 C 365.085938 324.398438 366.078125 323.636719 366.582031 322.390625 C 366.835938 320.890625 366.078125 319.386719 364.582031 318.878906 "/><path style=" stroke:none;fill-rule:nonzero;fill:rgb(6.269836%,5.879211%,5.099487%);fill-opacity:1;" d="M 404.289062 310.378906 L 379.804688 318.878906 C 378.308594 319.386719 377.570312 320.890625 378.054688 322.390625 C 378.5625 323.636719 379.574219 324.398438 380.816406 324.398438 C 381.050781 324.398438 381.324219 324.398438 381.808594 324.144531 L 390.054688 321.398438 C 388.8125 322.898438 387.796875 324.652344 387.796875 326.640625 C 387.796875 330.914062 391.300781 334.402344 395.539062 334.402344 C 399.796875 334.402344 403.277344 330.914062 403.277344 326.640625 C 403.277344 322.644531 400.28125 319.640625 396.296875 319.132812 L 406.292969 315.621094 C 407.789062 315.136719 408.527344 313.632812 408.023438 312.132812 C 407.285156 310.609375 405.785156 309.871094 404.289062 310.378906 "/><path style=" stroke:none;fill-rule:nonzero;fill:rgb(6.269836%,5.879211%,5.099487%);fill-opacity:1;" d="M 324.386719 331.167969 C 324.386719 321.398438 327.378906 312.367188 332.378906 304.855469 L 412.28125 304.855469 C 417.28125 312.367188 420.273438 321.398438 420.273438 331.167969 C 420.273438 333.917969 420.019531 336.667969 419.515625 339.417969 L 325.125 339.417969 C 324.871094 336.414062 324.386719 333.917969 324.386719 331.167969 Z M 372.320312 390.261719 C 404.773438 390.261719 431.261719 363.71875 431.261719 331.167969 C 431.261719 318.625 427.253906 307.121094 420.507812 297.347656 C 422.761719 297.347656 425.019531 297.347656 426.769531 296.839844 C 431.007812 295.59375 436.996094 289.332031 440.011719 286.074219 C 441.003906 285.082031 440.496094 283.8125 439.253906 283.558594 C 435.269531 282.816406 427.761719 281.316406 423.269531 282.308594 C 424.765625 278.058594 424.511719 270.296875 424.007812 266.277344 C 424.007812 265.03125 422.761719 264.289062 421.519531 265.03125 C 418.019531 267.546875 411.039062 272.792969 409.035156 276.8125 C 408.296875 278.566406 407.789062 281.316406 407.789062 284.066406 C 397.792969 276.304688 385.5625 271.542969 371.835938 271.542969 C 339.613281 271.796875 313.144531 298.34375 313.144531 331.167969 C 313.144531 363.972656 339.613281 390.261719 372.320312 390.261719 "/><path style="fill:none;stroke-width:1;stroke-linecap:round;stroke-linejoin:miter;stroke:rgb(86.669922%,76.078796%,76.078796%);stroke-opacity:1;stroke-miterlimit:4;" d="M 0.500239 0.0000113103 L 5.374183 0.0000287058 " transform="matrix(3.254691,-5.933989,5.81601,3.189981,187.246811,554.702753)"/><path style="fill:none;stroke-width:1;stroke-linecap:round;stroke-linejoin:miter;stroke:rgb(86.669922%,76.078796%,76.078796%);stroke-opacity:1;stroke-miterlimit:4;" d="M 0.499979 0.000337252 L 5.374429 0.0000714585 " transform="matrix(3.254691,-5.933989,5.81601,3.189981,199.460604,573.55564)"/><path style="fill:none;stroke-width:1;stroke-linecap:round;stroke-linejoin:miter;stroke:rgb(86.669922%,76.078796%,76.078796%);stroke-opacity:1;stroke-miterlimit:4;" d="M 0.499942 -0.000132512 L 5.374669 0.000118008 " transform="matrix(3.254691,-5.933989,5.81601,3.189981,211.674396,592.408479)"/><path style="fill:none;stroke-width:1;stroke-linecap:round;stroke-linejoin:miter;stroke:rgb(86.669922%,76.078796%,76.078796%);stroke-opacity:1;stroke-miterlimit:4;" d="M 0.500171 -0.0000829627 L 5.374115 -0.0000655672 " transform="matrix(3.254691,-5.933989,5.81601,3.189981,223.888204,611.261246)"/></g></svg>